<svg xmlns="http://www.w3.org/2000/svg" viewBox="0 0 800 600" width="800" height="600">
  <!-- Background Elements -->
  <rect x="0" y="0" width="800" height="600" fill="#f5f7ff" opacity="0" />
  
  <!-- Decorative Elements -->
  <circle cx="650" cy="100" r="50" fill="#e8ecff" />
  <circle cx="100" cy="500" r="70" fill="#e8ecff" />
  <circle cx="750" cy="450" r="30" fill="#e8ecff" />
  
  <!-- School Building -->
  <rect x="250" y="200" width="300" height="200" fill="#4a6bff" rx="5" />
  <rect x="230" y="180" width="340" height="20" fill="#3a5bef" rx="2" />
  <rect x="220" y="400" width="360" height="20" fill="#3a5bef" rx="2" />
  
  <!-- Windows -->
  <rect x="280" y="230" width="40" height="60" fill="#ffffff" rx="2" />
  <rect x="350" y="230" width="40" height="60" fill="#ffffff" rx="2" />
  <rect x="420" y="230" width="40" height="60" fill="#ffffff" rx="2" />
  <rect x="480" y="230" width="40" height="60" fill="#ffffff" rx="2" />
  
  <rect x="280" y="310" width="40" height="60" fill="#ffffff" rx="2" />
  <rect x="350" y="310" width="40" height="60" fill="#ffffff" rx="2" />
  <rect x="420" y="310" width="40" height="60" fill="#ffffff" rx="2" />
  <rect x="480" y="310" width="40" height="60" fill="#ffffff" rx="2" />
  
  <!-- Door -->
  <rect x="380" y="340" width="40" height="80" fill="#3a5bef" rx="2" />
  <circle cx="410" cy="380" r="3" fill="#ffffff" />
  
  <!-- Steps -->
  <rect x="360" y="420" width="80" height="10" fill="#3a5bef" />
  <rect x="370" y="430" width="60" height="10" fill="#3a5bef" />
  <rect x="380" y="440" width="40" height="10" fill="#3a5bef" />
  
  <!-- Roof -->
  <polygon points="400,150 200,200 600,200" fill="#6c63ff" />
  
  <!-- Flag -->
  <line x1="600" y1="150" x2="600" y2="250" stroke="#333" stroke-width="3" />
  <rect x="600" y="150" width="40" height="30" fill="#ff6b6b" />
  
  <!-- Trees -->
  <circle cx="150" cy="400" r="40" fill="#4CAF50" />
  <rect x="145" y="400" width="10" height="50" fill="#795548" />
  
  <circle cx="650" cy="400" r="40" fill="#4CAF50" />
  <rect x="645" y="400" width="10" height="50" fill="#795548" />
  
  <!-- Ground -->
  <rect x="0" y="450" width="800" height="150" fill="#e8ecff" />
  
  <!-- Students -->
  <!-- Student 1 -->
  <circle cx="200" cy="430" r="15" fill="#FFD700" />
  <rect x="195" y="445" width="10" height="25" fill="#FF5722" />
  <line x1="195" y1="455" x2="185" y2="465" stroke="#333" stroke-width="2" />
  <line x1="205" y1="455" x2="215" y2="465" stroke="#333" stroke-width="2" />
  <line x1="195" y1="470" x2="190" y2="490" stroke="#333" stroke-width="2" />
  <line x1="205" y1="470" x2="210" y2="490" stroke="#333" stroke-width="2" />
  
  <!-- Student 2 -->
  <circle cx="240" cy="430" r="15" fill="#FFD700" />
  <rect x="235" y="445" width="10" height="25" fill="#2196F3" />
  <line x1="235" y1="455" x2="225" y2="465" stroke="#333" stroke-width="2" />
  <line x1="245" y1="455" x2="255" y2="465" stroke="#333" stroke-width="2" />
  <line x1="235" y1="470" x2="230" y2="490" stroke="#333" stroke-width="2" />
  <line x1="245" y1="470" x2="250" y2="490" stroke="#333" stroke-width="2" />
  
  <!-- Student 3 -->
  <circle cx="560" cy="430" r="15" fill="#FFD700" />
  <rect x="555" y="445" width="10" height="25" fill="#9C27B0" />
  <line x1="555" y1="455" x2="545" y2="465" stroke="#333" stroke-width="2" />
  <line x1="565" y1="455" x2="575" y2="465" stroke="#333" stroke-width="2" />
  <line x1="555" y1="470" x2="550" y2="490" stroke="#333" stroke-width="2" />
  <line x1="565" y1="470" x2="570" y2="490" stroke="#333" stroke-width="2" />
  
  <!-- KIA Text -->
  <text x="400" y="190" font-family="Arial" font-size="24" font-weight="bold" text-anchor="middle" fill="#ffffff">KIA</text>
  
  <!-- Clouds -->
  <circle cx="100" cy="100" r="20" fill="#ffffff" opacity="0.8" />
  <circle cx="120" cy="100" r="25" fill="#ffffff" opacity="0.8" />
  <circle cx="140" cy="100" r="20" fill="#ffffff" opacity="0.8" />
  
  <circle cx="700" cy="150" r="20" fill="#ffffff" opacity="0.8" />
  <circle cx="720" cy="150" r="25" fill="#ffffff" opacity="0.8" />
  <circle cx="740" cy="150" r="20" fill="#ffffff" opacity="0.8" />
  
  <!-- Sun -->
  <circle cx="50" cy="50" r="30" fill="#FFD700" />
  <line x1="50" y1="10" x2="50" y2="0" stroke="#FFD700" stroke-width="3" />
  <line x1="50" y1="90" x2="50" y2="100" stroke="#FFD700" stroke-width="3" />
  <line x1="10" y1="50" x2="0" y2="50" stroke="#FFD700" stroke-width="3" />
  <line x1="90" y1="50" x2="100" y2="50" stroke="#FFD700" stroke-width="3" />
  <line x1="22" y1="22" x2="15" y2="15" stroke="#FFD700" stroke-width="3" />
  <line x1="78" y1="78" x2="85" y2="85" stroke="#FFD700" stroke-width="3" />
  <line x1="22" y1="78" x2="15" y2="85" stroke="#FFD700" stroke-width="3" />
  <line x1="78" y1="22" x2="85" y2="15" stroke="#FFD700" stroke-width="3" />
</svg>